{
.appVersion = "1057";
copyright = "Copyright 2017 Google Inc. All Rights Reserved.";
customParameters = (
{
name = glyphOrder;
value = (
.notdef,
NULL,
CR,
space,
uni00A0,
uni1735,
uni1736,
uni1740,
uni1741,
uni1742,
uni1743,
uni1744,
uni1745,
uni1746,
uni1747,
uni1748,
uni1749,
uni174A,
uni174B,
uni174C,
uni174D,
uni174E,
uni174F,
uni1750,
uni1751,
uni1752,
uni1753,
uni1743_i,
uni1744_u,
uni1745_i,
uni1745_u,
uni1747_i,
uni1748_u,
uni1749_u,
uni174B_i,
uni174C_u,
uni174D_i,
uni174D_u,
uni174E_i,
uni1750_u,
uni200B,
uni200C,
uni200D,
uni25CC
);
},
{
name = description;
value = "Designed by Monotype design team.";
},
{
name = license;
value = "This Font Software is licensed under the SIL Open Font License, Version 1.1. This Font Software is distributed on an \"AS IS\" BASIS, WITHOUT WARRANTIES OR CONDITIONS OF ANY KIND, either express or implied. See the SIL Open Font License for the specific language, permissions and limitations governing your use of this Font Software.";
},
{
name = licenseURL;
value = "http://scripts.sil.org/OFL";
},
{
name = vendorID;
value = GOOG;
},
{
name = unicodeRanges;
value = (
0,
1,
31,
45,
84
);
},
{
name = trademark;
value = "Noto is a trademark of Google Inc.";
},
{
name = "Has WWS Names";
value = 1;
},
{
name = versionString;
value = "Version 1.900";
},
{
name = fsType;
value = (
);
},
{
name = codePageRanges;
value = (
"1252"
);
},
{
name = "Don't use Production Names";
value = 1;
}
);
date = "2017-04-27 18:58:12 +0000";
designer = "Monotype Design Team";
designerURL = "http://www.monotype.com/studio";
disablesAutomaticAlignment = 1;
disablesNiceNames = 1;
familyName = "Noto Sans Buhid";
fontMaster = (
{
alignmentZones = (
"{1069, 15}",
"{714, 15}",
"{536, 15}",
"{0, -15}",
"{-293, -15}"
);
ascender = 1069;
capHeight = 714;
customParameters = (
{
name = typoAscender;
value = 1069;
},
{
name = typoDescender;
value = -293;
},
{
name = typoLineGap;
value = 0;
},
{
name = winAscent;
value = 1069;
},
{
name = winDescent;
value = 293;

glyphs = (
{
glyphname = .notdef;
lastChange = "2017-09-05 15:53:23 +0000";
layers = (
{
layerId = UUID0;
paths = (
{
closed = 1;
nodes = (
"505 0 LINE",
"505 714 LINE",
"94 714 LINE",
"94 0 LINE"
);
},
{
closed = 1;
nodes = (
"145 663 LINE",
"454 663 LINE",
"454 51 LINE",
"145 51 LINE"
);
}
);
width = 600;
}
);
},
{
glyphname = uni1735;
lastChange = "2017-09-05 15:53:23 +0000";
layers = (
{
layerId = UUID0;
paths = (
{
closed = 1;
nodes = (
"87 -139 LINE",
"292 750 LINE",
"222 750 LINE",
"18 -139 LINE"
);
}
);
width = 329;
}
);
unicode = 1735;
},
{
glyphname = uni1740;
lastChange = "2017-09-05 15:53:23 +0000";
layers = (
{
layerId = UUID0;
paths = (
{
closed = 1;
nodes = (
"497 0 LINE",
"813 714 LINE",
"728 714 LINE",
"443 68 LINE",
"237 68 LINE",
"346 536 LINE",
"69 536 LINE",
"53 468 LINE",
"251 468 LINE",
"143 0 LINE"
);
}
);
width = 828;
}
);
unicode = 1740;
},
{
glyphname = uni1741;
lastChange = "2017-09-05 15:53:23 +0000";
layers = (
{
layerId = UUID0;
paths = (
{
closed = 1;
nodes = (
"497 0 LINE",
"813 714 LINE",
"728 714 LINE",
"444 68 LINE",
"238 68 LINE",
"346 536 LINE",
"69 536 LINE",
"52 468 LINE",
"252 468 LINE",
"143 0 LINE"
);
},
{
closed = 1;
nodes = (
"455 -184 LINE",
"471 -116 LINE",
"116 -116 LINE",
"100 -184 LINE"
);
}
);
width = 828;
}
);
unicode = 1741;
},
{
glyphname = uni1742;
lastChange = "2017-09-05 15:53:23 +0000";
layers = (
{
layerId = UUID0;
paths = (
{
closed = 1;
nodes = (
"455 0 LINE",
"556 302 LINE",
"306 302 LINE",
"371 536 LINE",
"69 536 LINE",
"53 468 LINE",
"272 468 LINE",
"207 234 LINE",
"451 234 LINE",
"374 0 LINE"
);
}
);
width = 625;
}
);
unicode = 1742;
},
{
glyphname = uni1743;
lastChange = "2017-09-05 15:53:23 +0000";
layers = (
{
layerId = UUID0;
paths = (
{
closed = 1;
nodes = (
"409 0 LINE",
"425 68 LINE",
"71 68 LINE",
"55 0 LINE"
);
},
{
closed = 1;
nodes = (
"516 468 LINE",
"532 536 LINE",
"179 536 LINE",
"163 468 LINE"
);
}
);
width = 619;
}
);
unicode = 1743;
},
{
glyphname = uni1744;
lastChange = "2017-09-05 15:53:23 +0000";
layers = (
{
layerId = UUID0;
paths = (
{
closed = 1;
nodes = (
"388 0 LINE",
"463 322 LINE",
"188 322 LINE",
"245 568 LINE",
"165 568 LINE",
"93 254 LINE",
"368 254 LINE",
"310 0 LINE"
);
}
);
width = 599;
}
);
unicode = 1744;
},
{
glyphname = uni1745;
lastChange = "2017-09-05 15:53:23 +0000";
layers = (
{
layerId = UUID0;
paths = (
{
closed = 1;
nodes = (
"409 0 LINE",
"466 250 LINE",
"739 250 LINE",
"754 318 LINE",
"482 318 LINE",
"540 568 LINE",
"186 568 LINE",
"170 500 LINE",
"442 500 LINE",
"343 68 LINE",
"71 68 LINE",
"55 0 LINE"
);
}
);
width = 805;
}
);
unicode = 1745;
},
{
glyphname = uni1746;
lastChange = "2017-09-05 15:53:23 +0000";
layers = (
{
layerId = UUID0;
paths = (
{
closed = 1;
nodes = (
"322 0 LINE",
"433 254 LINE",
"547 254 LINE",
"504 0 LINE",
"769 0 LINE",
"1003 536 LINE",
"918 536 LINE",
"715 68 LINE",
"592 68 LINE",
"635 322 LINE",
"379 322 LINE",
"268 68 LINE",
"144 68 LINE",
"253 536 LINE",
"174 536 LINE",
"50 0 LINE"
);
}
);
width = 1025;
}
);
unicode = 1746;
},
{
glyphname = uni1747;
lastChange = "2017-09-05 15:53:23 +0000";
layers = (
{
layerId = UUID0;
paths = (
{
closed = 1;
nodes = (
"497 0 LINE",
"813 714 LINE",
"728 714 LINE",
"444 68 LINE",
"237 68 LINE",
"387 714 LINE",
"308 714 LINE",
"240 418 LINE",
"20 418 LINE",
"3 350 LINE",
"223 350 LINE",
"143 0 LINE"
);
}
);
width = 817;
}
);
unicode = 1747;
},
{
glyphname = uni1748;
lastChange = "2017-09-05 15:53:23 +0000";
layers = (
{
layerId = UUID0;
paths = (
{
closed = 1;
nodes = (
"183 0 LINE",
"333 646 LINE",
"480 646 LINE",
"496 714 LINE",
"103 714 LINE",
"87 646 LINE",
"254 646 LINE",
"105 0 LINE"
);
}
);
width = 438;
}
);
unicode = 1748;
},
{
glyphname = uni1749;
lastChange = "2017-09-05 15:53:23 +0000";
layers = (
{
layerId = UUID0;
paths = (
{
closed = 1;
nodes = (
"493 0 LINE",
"656 468 LINE",
"858 468 LINE",
"874 536 LINE",
"597 536 LINE",
"436 68 LINE",
"253 68 LINE",
"362 536 LINE",
"85 536 LINE",
"69 468 LINE",
"267 468 LINE",
"159 0 LINE"
);
}
);
width = 828;
}
);
unicode = 1749;
},
{
glyphname = uni174A;
lastChange = "2017-09-05 15:53:23 +0000";
layers = (
{
layerId = UUID0;
paths = (
{
closed = 1;
nodes = (
"409 0 LINE",
"540 568 LINE",
"186 568 LINE",
"170 500 LINE",
"442 500 LINE",
"343 68 LINE",
"71 68 LINE",
"55 0 LINE"
);
}
);
width = 619;
}
);
unicode = 174A;
},
{
glyphname = uni174B;
lastChange = "2017-09-05 15:53:23 +0000";
layers = (
{
layerId = UUID0;
paths = (
{
closed = 1;
nodes = (
"484 0 LINE",
"733 714 LINE",
"650 714 LINE",
"587 532 LINE",
"251 532 LINE",
"260 568 LINE",
"181 568 LINE",
"50 0 LINE"
);
},
{
closed = 1;
nodes = (
"236 464 LINE",
"563 464 LINE",
"427 68 LINE",
"144 68 LINE"
);
}
);
width = 734;
}
);
unicode = 174B;
},
{
glyphname = uni174C;
lastChange = "2017-09-05 15:53:23 +0000";
layers = (
{
layerId = UUID0;
paths = (
{
closed = 1;
nodes = (
"409 0 LINE",
"572 468 LINE",
"700 468 LINE",
"592 0 LINE",
"671 0 LINE",
"795 536 LINE",
"513 536 LINE",
"352 68 LINE",
"213 68 LINE",
"322 536 LINE",
"85 536 LINE",
"69 468 LINE",
"227 468 LINE",
"119 0 LINE"
);
}
);
width = 881;
}
);
unicode = 174C;
},
{
glyphname = uni174D;
lastChange = "2017-09-05 15:53:23 +0000";
layers = (
{
layerId = UUID0;
paths = (
{
closed = 1;
nodes = (
"539 295 LINE",
"555 363 LINE",
"84 363 LINE",
"68 295 LINE"
);
}
);
width = 613;
}
);
unicode = 174D;
},
{
glyphname = uni174E;
lastChange = "2017-09-05 15:53:23 +0000";
layers = (
{
layerId = UUID0;
paths = (
{
closed = 1;
nodes = (
"275 -250 LINE",
"361 0 LINE",
"619 0 LINE",
"854 576 LINE",
"480 576 LINE",
"305 68 LINE",
"145 68 LINE",
"221 398 LINE",
"142 398 LINE",
"50 0 LINE",
"281 0 LINE",
"195 -250 LINE"
);
},
{
closed = 1;
nodes = (
"538 508 LINE",
"743 508 LINE",
"565 68 LINE",
"385 68 LINE"
);
}
);
width = 867;
}
);
unicode = 174E;
},
{
glyphname = uni174F;
lastChange = "2017-09-05 15:53:23 +0000";
layers = (
{
layerId = UUID0;
paths = (
{
closed = 1;
nodes = (
"589 0 LINE",
"759 416 LINE",
"406 416 LINE",
"328 175 LINE",
"408 175 LINE",
"465 348 LINE",
"648 348 LINE",
"535 68 LINE",
"144 68 LINE",
"253 536 LINE",
"174 536 LINE",
"50 0 LINE"
);
}
);
width = 817;
}
);
unicode = 174F;
},
{
glyphname = uni1750;
lastChange = "2017-09-05 15:53:23 +0000";
layers = (
{
layerId = UUID0;
paths = (
{
closed = 1;
nodes = (
"604 -56 LINE",
"705 246 LINE",
"466 246 LINE",
"544 480 LINE",
"303 480 LINE",
"382 714 LINE",
"89 714 LINE",
"73 646 LINE",
"277 646 LINE",
"200 412 LINE",
"440 412 LINE",
"362 178 LINE",
"600 178 LINE",
"523 -56 LINE"
);
}
);
width = 758;
}
);
unicode = 1750;
},
{
glyphname = uni1751;
lastChange = "2017-09-05 15:53:23 +0000";
layers = (
{
layerId = UUID0;
paths = (
{
closed = 1;
nodes = (
"439 0 LINE",
"455 68 LINE",
"144 68 LINE",
"253 536 LINE",
"174 536 LINE",
"50 0 LINE"
);
}
);
width = 574;
}
);
unicode = 1751;
},
{
glyphname = uni1752;
lastChange = "2017-09-05 15:53:23 +0000";
layers = (
{
layerId = UUID0;
paths = (
{
closed = 1;
nodes = (
"-1 648 LINE",
"15 716 LINE",
"-340 716 LINE",
"-356 648 LINE"
);
}
);
width = 0;
}
);
unicode = 1752;
},
{
glyphname = uni1753;
lastChange = "2017-09-05 15:53:23 +0000";
layers = (
{
layerId = UUID0;
paths = (
{
closed = 1;
nodes = (
"-198 -184 LINE",
"-182 -116 LINE",
"-537 -116 LINE",
"-553 -184 LINE"
);
}
);
width = 0;
}
);
unicode = 1753;
},
{
glyphname = uni1743_i;
lastChange = "2017-09-05 15:53:23 +0000";
layers = (
{
layerId = UUID0;
paths = (
{
closed = 1;
nodes = (
"278 15 LINE",
"334 254 LINE",
"512 254 LINE",
"528 322 LINE",
"350 322 LINE",
"397 529 LINE",
"320 529 LINE",
"272 322 LINE",
"86 322 LINE",
"70 254 LINE",
"256 254 LINE",
"201 15 LINE"
);
}
);
width = 619;
}
);
note = uni1743_i;
},
{
glyphname = uni1744_u;
lastChange = "2017-09-05 15:53:23 +0000";
layers = (
{
layerId = UUID0;
paths = (
{
closed = 1;
nodes = (
"388 0 LINE",
"421 142 LINE",
"606 142 LINE",
"623 210 LINE",
"437 210 LINE",
"463 322 LINE",
"188 322 LINE",
"245 568 LINE",
"165 568 LINE",
"93 254 LINE",
"368 254 LINE",
"310 0 LINE"
);
}
);
width = 671;
}
);
note = uni1744_u;
},
{
glyphname = uni1745_i;
lastChange = "2017-09-05 15:53:23 +0000";
layers = (
{
layerId = UUID0;
paths = (
{
closed = 1;
nodes = (
"409 0 LINE",
"466 250 LINE",
"739 250 LINE",
"754 318 LINE",
"482 318 LINE",
"540 568 LINE",
"186 568 LINE",
"170 500 LINE",
"442 500 LINE",
"343 68 LINE",
"71 68 LINE",
"55 0 LINE"
);
},
{
closed = 1;
nodes = (
"764 370 LINE",
"780 438 LINE",
"567 438 LINE",
"551 370 LINE"
);
}
);
width = 826;
}
);
note = uni1745_i;
},
{
glyphname = uni1745_u;
lastChange = "2017-09-05 15:53:23 +0000";
layers = (
{
layerId = UUID0;
paths = (
{
closed = 1;
nodes = (
"409 0 LINE",
"466 250 LINE",
"739 250 LINE",
"754 318 LINE",
"482 318 LINE",
"540 568 LINE",
"186 568 LINE",
"170 500 LINE",
"442 500 LINE",
"343 68 LINE",
"71 68 LINE",
"55 0 LINE"
);
},
{
closed = 1;
nodes = (
"707 120 LINE",
"723 188 LINE",
"510 188 LINE",
"494 120 LINE"
);
}
);
width = 805;
}
);
note = uni1745_u;
},
{
glyphname = uni1747_i;
lastChange = "2017-09-05 15:53:23 +0000";
layers = (
{
layerId = UUID0;
paths = (
{
closed = 1;
nodes = (
"497 0 LINE",
"813 714 LINE",
"503 714 LINE",
"486 646 LINE",
"698 646 LINE",
"444 68 LINE",
"237 68 LINE",
"387 714 LINE",
"88 714 LINE",
"71 646 LINE",
"291 646 LINE",
"143 0 LINE"
);
}
);
width = 817;
}
);
note = uni1747_i;
},
{
glyphname = uni1748_u;
lastChange = "2017-09-05 15:53:23 +0000";
layers = (
{
layerId = UUID0;
paths = (
{
closed = 1;
nodes = (
"377 0 LINE",
"452 322 LINE",
"258 322 LINE",
"333 646 LINE",
"480 646 LINE",
"496 714 LINE",
"103 714 LINE",
"87 646 LINE",
"254 646 LINE",
"164 254 LINE",
"357 254 LINE",
"299 0 LINE"
);
}
);
width = 516;
}
);
note = uni1748_u;
},
{
glyphname = uni1749_u;
lastChange = "2017-09-05 15:53:23 +0000";
layers = (
{
layerId = UUID0;
paths = (
{
closed = 1;
nodes = (
"493 0 LINE",
"570 222 LINE",
"771 222 LINE",
"787 290 LINE",
"594 290 LINE",
"656 468 LINE",
"858 468 LINE",
"874 536 LINE",
"597 536 LINE",
"436 68 LINE",
"253 68 LINE",
"362 536 LINE",
"85 536 LINE",
"69 468 LINE",
"267 468 LINE",
"159 0 LINE"
);
}
);
width = 828;
}
);
note = uni1749_u;
},
{
glyphname = uni174B_i;
lastChange = "2017-09-05 15:53:23 +0000";
layers = (
{
layerId = UUID0;
paths = (
{
closed = 1;
nodes = (
"484 0 LINE",
"709 646 LINE",
"909 646 LINE",
"925 714 LINE",
"650 714 LINE",
"587 532 LINE",
"251 532 LINE",
"260 568 LINE",
"181 568 LINE",
"50 0 LINE"
);
},
{
closed = 1;
nodes = (
"236 464 LINE",
"563 464 LINE",
"427 68 LINE",
"144 68 LINE"
);
}
);
width = 881;
}
);
note = uni174B_i;
},
{
glyphname = uni174C_u;
lastChange = "2017-09-05 15:53:23 +0000";
layers = (
{
layerId = UUID0;
paths = (
{
closed = 1;
nodes = (
"409 0 LINE",
"572 468 LINE",
"700 468 LINE",
"592 0 LINE",
"865 0 LINE",
"881 68 LINE",
"687 68 LINE",
"795 536 LINE",
"513 536 LINE",
"352 68 LINE",
"213 68 LINE",
"322 536 LINE",
"85 536 LINE",
"69 468 LINE",
"227 468 LINE",
"119 0 LINE"
);
}
);
width = 969;
}
);
note = uni174C_u;
},
{
glyphname = uni174D_i;
lastChange = "2017-09-05 15:53:23 +0000";
layers = (
{
layerId = UUID0;
paths = (
{
closed = 1;
nodes = (
"271 0 LINE",
"330 254 LINE",
"530 254 LINE",
"546 322 LINE",
"345 322 LINE",
"387 500 LINE",
"562 500 LINE",
"578 568 LINE",
"325 568 LINE",
"268 322 LINE",
"75 322 LINE",
"59 254 LINE",
"252 254 LINE",
"193 0 LINE"
);
}
);
width = 613;
}
);
note = uni174D_i;
},
{
glyphname = uni174D_u;
lastChange = "2017-09-05 15:53:23 +0000";
layers = (
{
layerId = UUID0;
paths = (
{
closed = 1;
nodes = (
"460 0 LINE",
"477 68 LINE",
"286 68 LINE",
"330 254 LINE",
"530 254 LINE",
"546 322 LINE",
"345 322 LINE",
"402 568 LINE",
"325 568 LINE",
"268 322 LINE",
"75 322 LINE",
"59 254 LINE",
"252 254 LINE",
"193 0 LINE"
);
}
);
width = 613;
}
);
note = uni174D_u;
},
{
glyphname = uni174E_i;
lastChange = "2017-09-05 15:53:23 +0000";
layers = (
{
layerId = UUID0;
paths = (
{
closed = 1;
nodes = (
"275 -250 LINE",
"361 0 LINE",
"619 0 LINE",
"854 576 LINE",
"480 576 LINE",
"305 68 LINE",
"145 68 LINE",
"281 648 LINE",
"556 648 LINE",
"572 716 LINE",
"217 716 LINE",
"50 0 LINE",
"281 0 LINE",
"195 -250 LINE"
);
},
{
closed = 1;
nodes = (
"538 508 LINE",
"743 508 LINE",
"565 68 LINE",
"385 68 LINE"
);
}
);
width = 867;
}
);
note = uni174E_i;
},
{
glyphname = uni1750_u;
lastChange = "2017-09-05 15:53:23 +0000";
layers = (
{
layerId = UUID0;
paths = (
{
closed = 1;
nodes = (
"604 -56 LINE",
"705 246 LINE",
"466 246 LINE",
"544 480 LINE",
"303 480 LINE",
"382 714 LINE",
"89 714 LINE",
"73 646 LINE",
"277 646 LINE",
"200 412 LINE",
"440 412 LINE",
"362 178 LINE",
"600 178 LINE",
"523 -56 LINE"
);
},
{
closed = 1;
nodes = (
"572 556 LINE",
"588 624 LINE",
"395 624 LINE",
"374 556 LINE"
);
}
);
width = 758;
}
);
note = uni1750_u;
},
{
glyphname = uni25CC;
lastChange = "2017-09-05 15:53:23 +0000";
layers = (
{
layerId = UUID0;
paths = (
{
closed = 1;
nodes = (
"480 466 OFFCURVE",
"472 475 OFFCURVE",
"455 475 CURVE SMOOTH",
"437 475 OFFCURVE",
"428 466 OFFCURVE",
"428 448 CURVE SMOOTH",
"428 431 OFFCURVE",
"437 422 OFFCURVE",
"455 422 CURVE SMOOTH",
"472 422 OFFCURVE",
"480 431 OFFCURVE",
"480 448 CURVE SMOOTH"
);
},
{
closed = 1;
nodes = (
"408 514 OFFCURVE",
"400 523 OFFCURVE",
"383 523 CURVE SMOOTH",
"364 523 OFFCURVE",
"355 514 OFFCURVE",
"355 496 CURVE SMOOTH",
"355 479 OFFCURVE",
"364 470 OFFCURVE",
"383 470 CURVE SMOOTH",
"400 470 OFFCURVE",
"408 479 OFFCURVE",
"408 496 CURVE SMOOTH"
);
},
{
closed = 1;
nodes = (
"529 393 OFFCURVE",
"520 402 OFFCURVE",
"503 402 CURVE SMOOTH",
"485 402 OFFCURVE",
"476 393 OFFCURVE",
"476 376 CURVE SMOOTH",
"476 358 OFFCURVE",
"485 349 OFFCURVE",
"502 349 CURVE SMOOTH",
"520 349 OFFCURVE",
"529 358 OFFCURVE",
"529 376 CURVE SMOOTH"
);
},
{
closed = 1;
nodes = (
"546 308 OFFCURVE",
"538 317 OFFCURVE",
"521 317 CURVE SMOOTH",
"503 317 OFFCURVE",
"494 308 OFFCURVE",
"494 291 CURVE SMOOTH",
"494 274 OFFCURVE",
"503 265 OFFCURVE",
"521 265 CURVE SMOOTH",
"538 265 OFFCURVE",
"546 274 OFFCURVE",
"546 291 CURVE SMOOTH"
);
},
{
closed = 1;
nodes = (
"323 531 OFFCURVE",
"314 540 OFFCURVE",
"297 540 CURVE SMOOTH",
"280 540 OFFCURVE",
"271 531 OFFCURVE",
"271 514 CURVE SMOOTH",
"271 496 OFFCURVE",
"280 487 OFFCURVE",
"297 487 CURVE SMOOTH",
"314 487 OFFCURVE",
"323 496 OFFCURVE",
"323 514 CURVE SMOOTH"
);
},
{
closed = 1;
nodes = (
"239 514 OFFCURVE",
"230 523 OFFCURVE",
"212 523 CURVE SMOOTH",
"195 523 OFFCURVE",
"186 514 OFFCURVE",
"186 496 CURVE SMOOTH",
"186 479 OFFCURVE",
"195 470 OFFCURVE",
"212 470 CURVE SMOOTH",
"230 470 OFFCURVE",
"239 479 OFFCURVE",
"239 496 CURVE SMOOTH"
);
},
{
closed = 1;
nodes = (
"529 224 OFFCURVE",
"520 233 OFFCURVE",
"502 233 CURVE SMOOTH",
"485 233 OFFCURVE",
"476 224 OFFCURVE",
"476 206 CURVE SMOOTH",
"476 189 OFFCURVE",
"485 180 OFFCURVE",
"502 180 CURVE SMOOTH",
"520 180 OFFCURVE",
"529 189 OFFCURVE",
"529 206 CURVE SMOOTH"
);
},
{
closed = 1;
nodes = (
"167 466 OFFCURVE",
"158 475 OFFCURVE",
"140 475 CURVE SMOOTH",
"123 475 OFFCURVE",
"114 466 OFFCURVE",
"114 447 CURVE SMOOTH",
"114 430 OFFCURVE",
"123 422 OFFCURVE",
"140 422 CURVE SMOOTH",
"158 422 OFFCURVE",
"167 431 OFFCURVE",
"167 448 CURVE SMOOTH"
);
},
{
closed = 1;
nodes = (
"480 151 OFFCURVE",
"472 160 OFFCURVE",
"455 160 CURVE SMOOTH",
"437 160 OFFCURVE",
"428 151 OFFCURVE",
"428 133 CURVE SMOOTH",
"428 116 OFFCURVE",
"437 107 OFFCURVE",
"455 107 CURVE SMOOTH",
"472 107 OFFCURVE",
"480 116 OFFCURVE",
"480 133 CURVE SMOOTH"
);
},
{
closed = 1;
nodes = (
"408 103 OFFCURVE",
"400 112 OFFCURVE",
"383 112 CURVE SMOOTH",
"364 112 OFFCURVE",
"355 103 OFFCURVE",
"355 85 CURVE SMOOTH",
"355 68 OFFCURVE",
"364 60 OFFCURVE",
"383 60 CURVE SMOOTH",
"400 60 OFFCURVE",
"408 68 OFFCURVE",
"408 85 CURVE SMOOTH"
);
},
{
closed = 1;
nodes = (
"118 393 OFFCURVE",
"109 402 OFFCURVE",
"92 402 CURVE SMOOTH",
"74 402 OFFCURVE",
"65 393 OFFCURVE",
"65 376 CURVE SMOOTH",
"65 358 OFFCURVE",
"74 349 OFFCURVE",
"93 349 CURVE SMOOTH",
"110 349 OFFCURVE",
"118 358 OFFCURVE",
"118 376 CURVE SMOOTH"
);
},
{
closed = 1;
nodes = (
"101 308 OFFCURVE",
"92 317 OFFCURVE",
"75 317 CURVE SMOOTH",
"57 317 OFFCURVE",
"48 308 OFFCURVE",
"48 291 CURVE SMOOTH",
"48 274 OFFCURVE",
"57 265 OFFCURVE",
"75 265 CURVE SMOOTH",
"92 265 OFFCURVE",
"101 274 OFFCURVE",
"101 291 CURVE SMOOTH"
);
},
{
closed = 1;
nodes = (
"323 86 OFFCURVE",
"314 95 OFFCURVE",
"297 95 CURVE SMOOTH",
"280 95 OFFCURVE",
"271 86 OFFCURVE",
"271 69 CURVE SMOOTH",
"271 51 OFFCURVE",
"280 42 OFFCURVE",
"297 42 CURVE SMOOTH",
"314 42 OFFCURVE",
"323 51 OFFCURVE",
"323 69 CURVE SMOOTH"
);
},
{
closed = 1;
nodes = (
"118 224 OFFCURVE",
"109 233 OFFCURVE",
"92 233 CURVE SMOOTH",
"74 233 OFFCURVE",
"65 224 OFFCURVE",
"65 206 CURVE SMOOTH",
"65 189 OFFCURVE",
"74 180 OFFCURVE",
"92 180 CURVE SMOOTH",
"109 180 OFFCURVE",
"118 189 OFFCURVE",
"118 206 CURVE SMOOTH"
);
},
{
closed = 1;
nodes = (
"239 104 OFFCURVE",
"230 112 OFFCURVE",
"212 112 CURVE SMOOTH",
"195 112 OFFCURVE",
"186 103 OFFCURVE",
"186 85 CURVE SMOOTH",
"186 68 OFFCURVE",
"195 60 OFFCURVE",
"212 60 CURVE SMOOTH",
"230 60 OFFCURVE",
"239 69 OFFCURVE",
"239 87 CURVE SMOOTH"
);
},
{
closed = 1;
nodes = (
"167 151 OFFCURVE",
"158 160 OFFCURVE",
"140 160 CURVE SMOOTH",
"123 160 OFFCURVE",
"114 151 OFFCURVE",
"114 133 CURVE SMOOTH",
"114 116 OFFCURVE",
"123 107 OFFCURVE",
"140 107 CURVE SMOOTH",
"158 107 OFFCURVE",
"167 116 OFFCURVE",
"167 133 CURVE SMOOTH"
);
}
